<svg width="150" height="150" viewBox="0 0 150 150" fill="none" xmlns="http://www.w3.org/2000/svg">
<path d="M70.18 41.36C66.4192 41.36 62.8125 39.866 60.1532 37.2068C57.494 34.5475 56 30.9408 56 27.18C56 23.4192 57.494 19.8125 60.1532 17.1532C62.8125 14.494 66.4192 13 70.18 13H117.81C121.571 13 125.178 14.494 127.837 17.1532C130.496 19.8125 131.99 23.4192 131.99 27.18C131.99 30.9408 130.496 34.5475 127.837 37.2068C125.178 39.866 121.571 41.36 117.81 41.36H70.18Z" fill="#385CAD"/>
<path d="M70.18 90.88C66.4192 90.88 62.8125 89.3861 60.1532 86.7268C57.494 84.0675 56 80.4608 56 76.7C56 72.9393 57.494 69.3325 60.1532 66.6732C62.8125 64.014 66.4192 62.52 70.18 62.52H106.26C110.021 62.52 113.628 64.014 116.287 66.6732C118.946 69.3325 120.44 72.9393 120.44 76.7C120.44 80.4608 118.946 84.0675 116.287 86.7268C113.628 89.3861 110.021 90.88 106.26 90.88H70.18Z" fill="#385CAD"/>
<path d="M84.36 122.42C84.36 126.181 82.866 129.788 80.2068 132.447C77.5475 135.106 73.9408 136.6 70.18 136.6C66.4192 136.6 62.8125 135.106 60.1532 132.447C57.494 129.788 56 126.181 56 122.42V27.18C56 23.4192 57.494 19.8125 60.1532 17.1532C62.8125 14.494 66.4192 13 70.18 13C73.9408 13 77.5475 14.494 80.2068 17.1532C82.866 19.8125 84.36 23.4192 84.36 27.18V122.42Z" fill="#7BA4DD"/>
<path d="M70.18 136.51C78.0114 136.51 84.36 130.161 84.36 122.33C84.36 114.499 78.0114 108.15 70.18 108.15C62.3486 108.15 56 114.499 56 122.33C56 130.161 62.3486 136.51 70.18 136.51Z" fill="#002F87"/>
<path d="M70.18 41.36H84.36V27.18C84.36 24.3755 83.5284 21.6339 81.9702 19.302C80.4121 16.9701 78.1975 15.1526 75.6065 14.0794C73.0154 13.0061 70.1643 12.7253 67.4136 13.2725C64.663 13.8196 62.1363 15.1701 60.1532 17.1532C58.1701 19.1363 56.8196 21.663 56.2725 24.4136C55.7253 27.1643 56.0061 30.0154 57.0794 32.6065C58.1526 35.1975 59.9701 37.4121 62.302 38.9702C64.6339 40.5284 67.3755 41.36 70.18 41.36Z" fill="#002F87"/>
<path d="M84.36 76.72V62.52H70.18C67.3763 62.52 64.6355 63.3512 62.3041 64.9084C59.9726 66.4656 58.1551 68.6791 57.0813 71.269C56.0075 73.8589 55.7255 76.709 56.271 79.4591C56.8165 82.2092 58.1651 84.7358 60.1462 86.7197C62.1273 88.7036 64.652 90.0557 67.4014 90.6051C70.1507 91.1545 73.2402 90.92 75.7402 90.92C78.7402 90.92 81.2402 90.92 84.36 90.92C84.36 84.42 84.356 79.5237 84.36 76.72Z" fill="#002F87"/>
</svg>
